<?xml version="1.0" encoding="UTF-8" standalone="no"?>
<!DOCTYPE svg PUBLIC "-//W3C//DTD SVG 1.1//EN"
 "http://www.w3.org/Graphics/SVG/1.1/DTD/svg11.dtd">
<!-- Generated by graphviz version 2.43.0 (0)
 -->
<!-- Title: statemachine Pages: 1 -->
<svg width="882pt" height="90pt"
 viewBox="0.00 0.00 882.38 90.00" xmlns="http://www.w3.org/2000/svg" xmlns:xlink="http://www.w3.org/1999/xlink">
<g id="graph0" class="graph" transform="scale(1 1) rotate(0) translate(4 86)">
<title>statemachine</title>
<polygon fill="white" stroke="transparent" points="-4,4 -4,-86 878.38,-86 878.38,4 -4,4"/>
<!-- S -->
<g id="node1" class="node">
<title>S</title>
<ellipse fill="black" stroke="black" cx="1.8" cy="-27" rx="1.8" ry="1.8"/>
</g>
<!-- touchmeasurereq -->
<g id="node2" class="node">
<title>touchmeasurereq</title>
<ellipse fill="none" stroke="black" cx="129.6" cy="-27" rx="90" ry="27"/>
<text text-anchor="middle" x="129.6" y="-29.8" font-family="Times,serif" font-size="14.00">start</text>
<text text-anchor="middle" x="129.6" y="-15.8" font-family="Times,serif" font-size="14.00">measurement</text>
</g>
<!-- S&#45;&gt;touchmeasurereq -->
<g id="edge1" class="edge">
<title>S&#45;&gt;touchmeasurereq</title>
<path fill="none" stroke="black" d="M3.6,-27C6.42,-27 16.36,-27 29.5,-27"/>
<polygon fill="black" stroke="black" points="29.58,-30.5 39.58,-27 29.58,-23.5 29.58,-30.5"/>
</g>
<!-- touchpprequest -->
<g id="node3" class="node">
<title>touchpprequest</title>
<ellipse fill="none" stroke="black" cx="345.6" cy="-55" rx="90" ry="27"/>
<text text-anchor="middle" x="345.6" y="-57.8" font-family="Times,serif" font-size="14.00">Post&#45;process</text>
<text text-anchor="middle" x="345.6" y="-43.8" font-family="Times,serif" font-size="14.00">data</text>
</g>
<!-- touchmeasurereq&#45;&gt;touchpprequest -->
<g id="edge2" class="edge">
<title>touchmeasurereq&#45;&gt;touchpprequest</title>
<path fill="none" stroke="black" d="M212.42,-37.71C225.58,-39.43 239.29,-41.22 252.67,-42.97"/>
<polygon fill="black" stroke="black" points="252.46,-46.47 262.83,-44.3 253.36,-39.53 252.46,-46.47"/>
</g>
<!-- measurementdone -->
<g id="node4" class="node">
<title>measurementdone</title>
<ellipse fill="none" stroke="black" cx="564.99" cy="-55" rx="93.28" ry="27"/>
<text text-anchor="middle" x="564.99" y="-57.8" font-family="Times,serif" font-size="14.00">Indicate measurement</text>
<text text-anchor="middle" x="564.99" y="-43.8" font-family="Times,serif" font-size="14.00">has finished</text>
</g>
<!-- touchpprequest&#45;&gt;measurementdone -->
<g id="edge3" class="edge">
<title>touchpprequest&#45;&gt;measurementdone</title>
<path fill="none" stroke="black" d="M435.65,-55C444.16,-55 452.84,-55 461.46,-55"/>
<polygon fill="black" stroke="black" points="461.55,-58.5 471.55,-55 461.55,-51.5 461.55,-58.5"/>
</g>
<!-- eval -->
<g id="node5" class="node">
<title>eval</title>
<ellipse fill="none" stroke="black" cx="784.38" cy="-27" rx="90" ry="27"/>
<text text-anchor="middle" x="784.38" y="-22.8" font-family="Times,serif" font-size="14.00">Evaluate measured data</text>
</g>
<!-- measurementdone&#45;&gt;eval -->
<g id="edge4" class="edge">
<title>measurementdone&#45;&gt;eval</title>
<path fill="none" stroke="black" d="M650.66,-44.09C663.96,-42.38 677.77,-40.6 691.23,-38.87"/>
<polygon fill="black" stroke="black" points="691.97,-42.3 701.44,-37.55 691.07,-35.36 691.97,-42.3"/>
</g>
<!-- eval&#45;&gt;touchmeasurereq -->
<g id="edge5" class="edge">
<title>eval&#45;&gt;touchmeasurereq</title>
<path fill="none" stroke="black" d="M696.67,-20.73C683.84,-20.01 670.77,-19.4 658.38,-19 479.46,-13.28 434.52,-13.28 255.6,-19 246.5,-19.29 237.04,-19.7 227.57,-20.18"/>
<polygon fill="black" stroke="black" points="227.11,-16.7 217.31,-20.73 227.48,-23.69 227.11,-16.7"/>
</g>
</g>
</svg>
