<?xml version="1.0" encoding="UTF-8" standalone="no"?>
<!DOCTYPE svg PUBLIC "-//W3C//DTD SVG 1.1//EN"
 "http://www.w3.org/Graphics/SVG/1.1/DTD/svg11.dtd">
<!-- Generated by graphviz version 2.43.0 (0)
 -->
<!-- Title: GeneralSWFlow Pages: 1 -->
<svg width="935pt" height="52pt"
 viewBox="0.00 0.00 934.53 52.00" xmlns="http://www.w3.org/2000/svg" xmlns:xlink="http://www.w3.org/1999/xlink">
<g id="graph0" class="graph" transform="scale(1 1) rotate(0) translate(4 48)">
<title>GeneralSWFlow</title>
<polygon fill="white" stroke="transparent" points="-4,4 -4,-48 930.53,-48 930.53,4 -4,4"/>
<!-- start -->
<g id="node1" class="node">
<title>start</title>
<ellipse fill="grey" stroke="grey" cx="18" cy="-22" rx="18" ry="18"/>
</g>
<!-- clkconf -->
<g id="node2" class="node">
<title>clkconf</title>
<polygon fill="none" stroke="black" points="204.46,-40 71.85,-40 71.85,-4 204.46,-4 204.46,-40"/>
<text text-anchor="middle" x="138.15" y="-24.8" font-family="Times,serif" font-size="14.00">configure &amp; enable</text>
<text text-anchor="middle" x="138.15" y="-10.8" font-family="Times,serif" font-size="14.00">PTC &amp; Timer clocks</text>
</g>
<!-- start&#45;&gt;clkconf -->
<g id="edge1" class="edge">
<title>start&#45;&gt;clkconf</title>
<path fill="none" stroke="black" d="M36.18,-22C43.35,-22 52.22,-22 61.71,-22"/>
<polygon fill="black" stroke="black" points="61.76,-25.5 71.76,-22 61.76,-18.5 61.76,-25.5"/>
</g>
<!-- timer -->
<g id="node3" class="node">
<title>timer</title>
<polygon fill="none" stroke="black" points="369.78,-40 240.48,-40 240.48,-4 369.78,-4 369.78,-40"/>
<text text-anchor="middle" x="305.13" y="-17.8" font-family="Times,serif" font-size="14.00">Start Timer @ 20ms</text>
</g>
<!-- clkconf&#45;&gt;timer -->
<g id="edge2" class="edge">
<title>clkconf&#45;&gt;timer</title>
<path fill="none" stroke="black" d="M204.36,-22C212.9,-22 221.71,-22 230.38,-22"/>
<polygon fill="black" stroke="black" points="230.48,-25.5 240.48,-22 230.48,-18.5 230.48,-25.5"/>
</g>
<!-- qtconfigacq -->
<g id="node4" class="node">
<title>qtconfigacq</title>
<polygon fill="none" stroke="black" points="534.53,-40 405.76,-40 405.76,-4 534.53,-4 534.53,-40"/>
<text text-anchor="middle" x="470.15" y="-24.8" font-family="Times,serif" font-size="14.00">Configure QTouch</text>
<text text-anchor="middle" x="470.15" y="-10.8" font-family="Times,serif" font-size="14.00">Acquisition Module</text>
</g>
<!-- timer&#45;&gt;qtconfigacq -->
<g id="edge3" class="edge">
<title>timer&#45;&gt;qtconfigacq</title>
<path fill="none" stroke="black" d="M370.09,-22C378.55,-22 387.28,-22 395.88,-22"/>
<polygon fill="black" stroke="black" points="395.9,-25.5 405.9,-22 395.9,-18.5 395.9,-25.5"/>
</g>
<!-- qtconfigkey -->
<g id="node5" class="node">
<title>qtconfigkey</title>
<polygon fill="none" stroke="black" points="691.58,-40 570.25,-40 570.25,-4 691.58,-4 691.58,-40"/>
<text text-anchor="middle" x="630.92" y="-24.8" font-family="Times,serif" font-size="14.00">Configure QTouch</text>
<text text-anchor="middle" x="630.92" y="-10.8" font-family="Times,serif" font-size="14.00">TouchKey Module</text>
</g>
<!-- qtconfigacq&#45;&gt;qtconfigkey -->
<g id="edge4" class="edge">
<title>qtconfigacq&#45;&gt;qtconfigkey</title>
<path fill="none" stroke="black" d="M534.35,-22C542.87,-22 551.64,-22 560.26,-22"/>
<polygon fill="black" stroke="black" points="560.28,-25.5 570.28,-22 560.28,-18.5 560.28,-25.5"/>
</g>
<!-- runsm -->
<g id="node6" class="node">
<title>runsm</title>
<polygon fill="none" stroke="black" points="846.55,-40 727.49,-40 727.49,-4 846.55,-4 846.55,-40"/>
<text text-anchor="middle" x="787.02" y="-24.8" font-family="Times,serif" font-size="14.00">Run Measurement</text>
<text text-anchor="middle" x="787.02" y="-10.8" font-family="Times,serif" font-size="14.00">State Machine</text>
</g>
<!-- qtconfigkey&#45;&gt;runsm -->
<g id="edge5" class="edge">
<title>qtconfigkey&#45;&gt;runsm</title>
<path fill="none" stroke="black" d="M691.94,-22C700.23,-22 708.8,-22 717.23,-22"/>
<polygon fill="black" stroke="black" points="717.43,-25.5 727.43,-22 717.43,-18.5 717.43,-25.5"/>
</g>
<!-- end -->
<g id="node7" class="node">
<title>end</title>
<ellipse fill="grey" stroke="grey" cx="904.53" cy="-22" rx="18" ry="18"/>
<ellipse fill="none" stroke="grey" cx="904.53" cy="-22" rx="22" ry="22"/>
</g>
<!-- runsm&#45;&gt;end -->
<g id="edge6" class="edge">
<title>runsm&#45;&gt;end</title>
<path fill="none" stroke="black" d="M846.79,-22C855.6,-22 864.38,-22 872.31,-22"/>
<polygon fill="black" stroke="black" points="872.52,-25.5 882.52,-22 872.52,-18.5 872.52,-25.5"/>
</g>
</g>
</svg>
